<svg id="bettry" xmlns="http://www.w3.org/2000/svg" xmlns:xlink="http://www.w3.org/1999/xlink" width="56.078" height="52.427" viewBox="0 0 56.078 52.427">
  <defs>
    <clipPath id="clip-path">
      <rect id="Rectangle_17324" data-name="Rectangle 17324" width="56.078" height="52.426" fill="none"/>
    </clipPath>
  </defs>
  <g id="Group_6852" data-name="Group 6852" clip-path="url(#clip-path)">
    <path id="Path_4260" data-name="Path 4260" d="M1.881,22.516a1.078,1.078,0,0,0-.192-.04C.149,22.585-.024,22.105,0,20.7c.039-2.105.009-4.212.01-6.318a4.692,4.692,0,0,1,5-5.015h.608c0-.776,0-1.527,0-2.279,0-1.238.209-1.448,1.457-1.466.114,0,.228-.01.412-.019,0-.713,0-1.408,0-2.1,0-.819-.01-1.638,0-2.457A.926.926,0,0,1,8.5.009q2.715-.019,5.43,0a.939.939,0,0,1,1.032,1.065c.01,1.307,0,2.613,0,3.92v.628c.32,0,.587-.009.854,0a.938.938,0,0,1,1.011,1.029c.014.876,0,1.752,0,2.67H39.253q0-1.156,0-2.317c0-1.124.246-1.374,1.361-1.385.15,0,.3,0,.507,0,0-1.453,0-2.852,0-4.251C41.122.261,41.381,0,42.5,0q2.452,0,4.9,0c.87,0,1.186.323,1.188,1.207,0,1.441,0,2.882,0,4.409.291,0,.554-.006.817,0a.948.948,0,0,1,1.048,1.052c.012.874,0,1.748,0,2.637.636.053,1.239.053,1.822.16a4.59,4.59,0,0,1,3.772,4.44c.035,2.5.015,4.992.008,7.488,0,.722-.357,1.055-1.089,1.071-.232.005-.464,0-.776,0v.705q0,13.924,0,27.847c0,1.151-.252,1.4-1.4,1.4H3.284c-1.153,0-1.4-.25-1.4-1.4q0-13.895,0-27.789ZM54.2,20.575c0-2.169.006-4.273,0-6.376a2.8,2.8,0,0,0-2.975-2.96q-23.171,0-46.342,0a2.807,2.807,0,0,0-3,2.993q-.007,2.924,0,5.848c0,.166.022.333.033.5ZM38.319,36.511q0-3.568,0-7.135a2.838,2.838,0,0,0-3.128-3.16q-7.15,0-14.3,0a2.832,2.832,0,0,0-3.125,3.1q0,7.194,0,14.387a2.828,2.828,0,0,0,3.069,3.1q7.209,0,14.417,0a2.827,2.827,0,0,0,3.067-3.1q0-3.6,0-7.194m13.987-14H3.793v9.3H15.9c0-1-.021-1.967,0-2.935a4.616,4.616,0,0,1,4.484-4.509c5.1-.039,10.2-.029,15.293,0a4.379,4.379,0,0,1,3.516,1.8,4.623,4.623,0,0,1,.99,2.932c0,.907,0,1.814,0,2.714H52.306ZM3.774,50.515H52.287V41.224H40.182c0,1,.023,1.97,0,2.939a4.616,4.616,0,0,1-4.491,4.5q-7.646.059-15.293,0a4.5,4.5,0,0,1-4.377-3.756,24.358,24.358,0,0,1-.121-3.088c-.006-.2,0-.408,0-.6H3.774Zm0-11.235H15.849V33.735H3.776ZM52.3,33.744H40.233V39.31H52.3ZM9.4,5.574h3.665V1.9H9.4Zm33.633,0H46.7V1.9H43.03ZM7.513,9.324h7.4v-1.8h-7.4ZM48.569,7.533h-7.4v1.8h7.4Z" transform="translate(0 0)"/>
    <path id="Path_4261" data-name="Path 4261" d="M275.341,88.01h-1.815v1.815H271.65V88.006h-1.832V86.127h1.815V84.291h1.875V86.11h1.832Z" transform="translate(-227.721 -71.14)" fill="#f95e10"/>
    <rect id="Rectangle_17323" data-name="Rectangle 17323" width="5.542" height="1.8" transform="translate(8.448 15.023)" fill="#f95e10"/>
    <path id="Path_4262" data-name="Path 4262" d="M146.34,194.126l-1.282-1.269,6.793-6.8c-.322-.024-.484-.046-.645-.046-2.062,0-4.124-.007-6.186,0-.5,0-.936-.086-1.146-.606a1.03,1.03,0,0,1,.386-1.187q3.946-3.943,7.884-7.894c.1-.1.2-.184.325-.3l1.188,1.34-6.715,6.723c.342.026.5.048.664.048,2.062,0,4.124.008,6.186,0,.5,0,.937.084,1.147.6a1.031,1.031,0,0,1-.384,1.189q-3.965,3.965-7.924,7.937c-.081.081-.17.156-.29.266" transform="translate(-121.365 -148.559)" fill="#f95e10"/>
  </g>
</svg>
