<svg id="feul" xmlns="http://www.w3.org/2000/svg" xmlns:xlink="http://www.w3.org/1999/xlink" width="45.773" height="52.591" viewBox="0 0 45.773 52.591">
  <defs>
    <clipPath id="clip-path">
      <rect id="Rectangle_17337" data-name="Rectangle 17337" width="45.773" height="52.591" fill="none"/>
    </clipPath>
  </defs>
  <g id="Group_6858" data-name="Group 6858" clip-path="url(#clip-path)">
    <path id="Path_4278" data-name="Path 4278" d="M28.064,8.533a8.084,8.084,0,0,1,2.307.193c.89.353,1.344.007,1.884-.579a1.01,1.01,0,0,0,.317-1.2,2.161,2.161,0,0,1,.565-2.245c.341-.376.7-.734,1.07-1.085a3.914,3.914,0,0,1,5.527.008q2.475,2.433,4.889,4.93a3.907,3.907,0,0,1,.025,5.511c-.307.331-.634.643-.951.965a2.515,2.515,0,0,1-2.723.661c-.776-.227-.936.7-1.427,1.03-.129.088-.169.406-.146.606a16,16,0,0,1,.269,1.719q.027,14.086.009,28.172a5.064,5.064,0,0,1-5.333,5.364q-14.5.006-29,0A5.069,5.069,0,0,1,.005,47.224q-.013-22.249,0-44.5A2.428,2.428,0,0,1,4.629,1.444a2.041,2.041,0,0,1,.2.342c.346.971,1.005,1.2,2.02,1.188,5.864-.059,11.728-.029,17.593-.029A3.305,3.305,0,0,1,28.064,6.6c0,.639,0,1.277,0,1.938M2.182,25.186q0,11,0,22a2.9,2.9,0,0,0,3.161,3.211q14.5.008,29.006,0a2.905,2.905,0,0,0,3.159-3.215q0-14.031.01-28.061a2.307,2.307,0,0,0-.734-1.755q-2.9-2.885-5.762-5.814a2.445,2.445,0,0,0-1.892-.793c-6.427.018-12.854.007-19.281.013A3.6,3.6,0,0,1,7,9.528a8.913,8.913,0,0,1-.884-1.306C4.989,6.33,3.874,4.429,2.74,2.54c-.081-.135-.27-.2-.408-.3a3.44,3.44,0,0,0-.144.445,2.159,2.159,0,0,0-.005.4V25.186M6.833,5.149c.516.866.99,1.607,1.408,2.379A1.92,1.92,0,0,0,10.122,8.6c5.04-.018,10.08-.009,15.12-.009h.664c0-.682,0-1.3,0-1.918,0-1.179-.334-1.518-1.5-1.518H6.833ZM41.96,13.813c.334-.381.63-.718.927-1.055a5.555,5.555,0,0,0,.374-.42,1.7,1.7,0,0,0-.134-2.185q-2.476-2.546-5-5.042a1.646,1.646,0,0,0-2.337.023c-.277.254-.514.553-.8.792-.383.319-.355.555,0,.9,2.171,2.16,4.32,4.343,6.477,6.517.118.119.245.229.5.465m-3.008.312-4.76-4.833-1.077,1.1,4.743,4.83,1.095-1.1" transform="translate(0 0)"/>
    <path id="Path_4279" data-name="Path 4279" d="M73.054,115.863a6.928,6.928,0,0,1-.663,1.018c-1.1,1.139-2.228,2.243-3.32,3.386a1.246,1.246,0,0,0-.318.777q-.028,6.973,0,13.946a1.323,1.323,0,0,0,.352.819c1.118,1.17,2.276,2.3,3.4,3.461a1.081,1.081,0,0,1-.279,1.825,1.1,1.1,0,0,1-1.313-.345c-1.122-1.14-2.241-2.283-3.387-3.4a1.225,1.225,0,0,0-.767-.33q-6.577-.03-13.154,0a1.222,1.222,0,0,0-.769.323c-1.16,1.128-2.283,2.294-3.432,3.433a1.072,1.072,0,0,1-1.849-.256,1.13,1.13,0,0,1,.351-1.323c1.132-1.13,2.264-2.26,3.37-3.416a1.246,1.246,0,0,0,.325-.776q.029-7,0-14a1.165,1.165,0,0,0-.305-.727c-1.134-1.181-2.3-2.334-3.447-3.5a1.077,1.077,0,0,1-.26-1.339.965.965,0,0,1,1.173-.55,1.8,1.8,0,0,1,.74.471c1.112,1.1,2.2,2.222,3.315,3.31a1.232,1.232,0,0,0,.772.329q6.577.03,13.154,0a1.31,1.31,0,0,0,.819-.354c1.161-1.127,2.289-2.288,3.428-3.437a.976.976,0,0,1,1.227-.254,4.372,4.372,0,0,1,.834.911m-6.512,5.387H53.817v13.558H66.542Z" transform="translate(-40.334 -97.435)" fill="#fc6011"/>
    <path id="Path_4280" data-name="Path 4280" d="M108.162,174.84a19.715,19.715,0,0,1,.717-2.185c.585-1.284,1.232-2.541,1.9-3.782a1.039,1.039,0,0,1,1.9-.077,46.585,46.585,0,0,1,2.372,5.049,3.4,3.4,0,0,1-2.435,4.439,3.5,3.5,0,0,1-4.273-2.68c-.054-.237-.064-.485-.094-.727l-.089-.037m3.719-3.125-.237.005c-.382.933-.791,1.856-1.136,2.8a1.2,1.2,0,0,0,.5,1.427,1.258,1.258,0,0,0,1.47.022,1.2,1.2,0,0,0,.546-1.41c-.347-.962-.76-1.9-1.146-2.847" transform="translate(-91.919 -142.735)" fill="#fc6011"/>
  </g>
</svg>
