<svg id="Fluid" xmlns="http://www.w3.org/2000/svg" xmlns:xlink="http://www.w3.org/1999/xlink" width="68.238" height="52.426" viewBox="0 0 68.238 52.426">
  <defs>
    <clipPath id="clip-path">
      <rect id="Rectangle_17335" data-name="Rectangle 17335" width="68.238" height="52.426" fill="none"/>
    </clipPath>
  </defs>
  <g id="Group_6855" data-name="Group 6855" clip-path="url(#clip-path)">
    <path id="Path_4269" data-name="Path 4269" d="M0,71.163H12.636a7.992,7.992,0,0,1,3.6-5.523,7.756,7.756,0,0,1,4.277-1.274,7.873,7.873,0,0,1,3.643.909,6.585,6.585,0,0,1,2.776,2.419c.636,1.072,1.1,2.243,1.692,3.464h6.654V66.635H31.712c-1.907,0-2.094-.187-2.094-2.1,0-1.089-.009-2.177,0-3.266.011-1.051.414-1.454,1.45-1.462s2.076,0,3.214,0a7.651,7.651,0,0,0-2.313-2.785,8.733,8.733,0,0,0-5.594-1.782c-4.42.018-8.84.006-13.261,0-1.228,0-1.449-.157-1.831-1.3Q8.763,46.372,6.252,38.8a.806.806,0,0,0-.923-.683c-1.775.036-3.552,0-5.329-.009V35.837q3.2.007,6.4.016c1.046,0,1.318.194,1.649,1.184q2.373,7.1,4.742,14.193c.063.188.128.376.236.69l16.92-17.976L31.6,35.5,15.183,52.951c.438,0,.692,0,.945,0,3.864.022,7.73-.049,11.59.09a10.7,10.7,0,0,1,9.731,9.011,17.292,17.292,0,0,1,.142,2.122c.017,2.554.007,5.109.006,7.663,0,1.293-.328,1.628-1.6,1.63q-3.4,0-6.8,0H28.45c-1.03,4.236-3.629,6.826-8.023,6.788-4.3-.037-6.838-2.611-7.846-6.788h-.792q-5.5,0-10.993,0c-.265,0-.53-.025-.8-.038V71.163m20.167,6.828a5.671,5.671,0,1,0-5.328-5.851,5.653,5.653,0,0,0,5.328,5.851M31.933,64.315h3.43c-.061-.765-.118-1.476-.174-2.179H31.933Z" transform="translate(0 -27.889)" fill="#fc6011"/>
    <path id="Path_4270" data-name="Path 4270" d="M0,76.674c.621,0,1.243-.005,1.864,0,1.047,0,1.318.2,1.618,1.2Q5,82.925,6.523,87.986c.587,1.96.274,2.361-1.8,2.369-1.573.007-3.147.032-4.72.049V88H4.147L1.43,78.94H0Z" transform="translate(0 -62.994)"/>
    <rect id="Rectangle_17330" data-name="Rectangle 17330" width="4.495" height="2.266" transform="translate(0 30.743)"/>
    <path id="Path_4271" data-name="Path 4271" d="M203.764,15.482A7.984,7.984,0,0,1,208.513.257a7.759,7.759,0,0,1,5.063,4.02,7.837,7.837,0,0,1,.406,6.485c.782.273,1.514.514,2.235.782a7.826,7.826,0,0,1,4.954,4.967c1.141,3.426,2.256,6.871,3.122,10.373a35.527,35.527,0,0,1,.739,6.4c.289,4.878.477,9.762.716,14.643a4.011,4.011,0,1,1-7.988.7c-.153-2.238-.279-4.478-.419-6.717a2.824,2.824,0,0,0-.208-1q-.552,2.193-1.1,4.386c-.335,1.334-.641,2.675-1.007,4a3.966,3.966,0,1,1-7.716-1.837q1.6-7.62,3.21-15.238c.662-3.118-.931-5.908-3.864-6.463a10.7,10.7,0,0,0-3.232.093c-2.532.314-5.053.714-7.58,1.072a3.5,3.5,0,0,1-1.438-6.84c1.472-.412,2.973-.738,4.418-1.229a11.7,11.7,0,0,0,4.944-3.378m19.31,24.578h.008c-.043-.932-.066-1.865-.133-2.795-.224-3.076-.312-6.172-.735-9.22-.536-3.86-2.028-7.481-3.334-11.131a5.285,5.285,0,0,0-3.191-3.125c-.741-.293-1.515-.5-2.256-.8a.729.729,0,0,0-.964.244,7.935,7.935,0,0,1-5.527,2.716,1.5,1.5,0,0,0-.924.471,15.136,15.136,0,0,1-6.867,4.748c-1.3.425-2.653.715-3.98,1.069-.892.238-1.282.765-1.128,1.515.14.681.734,1.017,1.61.893,2.5-.354,5-.76,7.514-1.052a12.723,12.723,0,0,1,3.825-.084,7.338,7.338,0,0,1,5.785,9.007c-.853,4.081-1.724,8.159-2.586,12.238-.229,1.085-.477,2.167-.675,3.257a1.681,1.681,0,0,0,1.217,2.066,1.709,1.709,0,0,0,2.077-1.3c.064-.212.105-.431.159-.646q1.877-7.519,3.756-15.037c.213-.852.634-1.215,1.3-1.159.626.053,1.007.514,1.057,1.316.234,3.768.455,7.536.7,11.3.092,1.438.166,2.882.362,4.308a1.541,1.541,0,0,0,1.771,1.26,1.662,1.662,0,0,0,1.559-1.545,7.044,7.044,0,0,0-.019-.932q-.185-3.793-.375-7.586M212.2,7.969a5.683,5.683,0,1,0-5.656,5.7,5.7,5.7,0,0,0,5.656-5.7" transform="translate(-157.518 0)"/>
    <path id="Path_4272" data-name="Path 4272" d="M178.19,89.661h2.365v2.185h-2.184l-.167-2.2Z" transform="translate(-146.405 -73.657)"/>
    <rect id="Rectangle_17331" data-name="Rectangle 17331" width="2.188" height="2.202" transform="translate(22.826 4.593)"/>
    <rect id="Rectangle_17332" data-name="Rectangle 17332" width="2.184" height="2.19" transform="translate(35.357 8.001)"/>
    <path id="Path_4273" data-name="Path 4273" d="M168.4,79.227h-2.142V76.964h2.282c-.051.763-.1,1.519-.153,2.275l.013-.012" transform="translate(-136.602 -63.236)"/>
    <rect id="Rectangle_17333" data-name="Rectangle 17333" width="2.207" height="2.173" transform="translate(25.106 20.56)"/>
    <rect id="Rectangle_17334" data-name="Rectangle 17334" width="2.188" height="2.192" transform="translate(41.068 30.797)"/>
  </g>
</svg>
