<svg id="lock" xmlns="http://www.w3.org/2000/svg" xmlns:xlink="http://www.w3.org/1999/xlink" width="52.519" height="52.448" viewBox="0 0 52.519 52.448">
  <defs>
    <clipPath id="clip-path">
      <rect id="Rectangle_17325" data-name="Rectangle 17325" width="52.519" height="52.448" fill="none"/>
    </clipPath>
  </defs>
  <g id="Group_6853" data-name="Group 6853" clip-path="url(#clip-path)">
    <path id="Path_4263" data-name="Path 4263" d="M52.519,12.695v2.355a3.416,3.416,0,0,0-.092.393A13.9,13.9,0,0,1,41.752,27.457c-.474.113-.953.2-1.434.3a2.855,2.855,0,0,0,.122.649.638.638,0,0,0,.351.344,5.743,5.743,0,0,1,4.753,5.923c0,2.251.008,4.5-.008,6.754a.588.588,0,0,0,.409.643,2.833,2.833,0,0,1-.609,5.351c-.326.071-.664.083-1.023.125,0,.771,0,1.519,0,2.267a2.461,2.461,0,0,1-2.606,2.6q-2.307.009-4.614,0a2.467,2.467,0,0,1-2.626-2.629c0-.746,0-1.491,0-2.255H13.13c0,.775,0,1.522,0,2.269a2.467,2.467,0,0,1-2.641,2.615c-.974,0-1.95-.041-2.922.008-3.631.185-4.487-.653-4.286-4.259.012-.214,0-.429,0-.663a2.848,2.848,0,0,1-2.51-.937A8.361,8.361,0,0,1,0,45.148V44.124A2.988,2.988,0,0,1,1.679,42.06a.539.539,0,0,0,.38-.61c-.013-1.945.047-3.891-.022-5.834a6.845,6.845,0,0,1,1.651-5.254c.007-.007,0-.03-.008-.079-.082-.023-.175-.054-.27-.076a3.261,3.261,0,0,1,.7-6.45c1.3-.008,2.639-.2,3.781.8.256-1.365.507-2.635.731-3.909a5.776,5.776,0,0,1,6.062-5.087H24.725c-.035-.351-.071-.621-.087-.893A13.894,13.894,0,0,1,34.017.713C34.9.413,35.82.235,36.722,0h3.693a2.015,2.015,0,0,0,.28.1A13.732,13.732,0,0,1,52.023,10.251c.24.792.334,1.628.5,2.444M38.593,1.638A12.285,12.285,0,1,0,50.877,13.92,12.305,12.305,0,0,0,38.593,1.638M24.989,17.2H14.663c-.205,0-.411,0-.615.009a4.055,4.055,0,0,0-3.68,3.127c-.348,1.615-.626,3.245-.932,4.869-.214,1.135-.425,2.27-.643,3.435H38.8l-.145-.754C31.081,27.066,27.674,24.4,24.989,17.2m9.839,13.13H12.769c.218.194.382.335.539.481a8.03,8.03,0,0,1,2.686,5.931c.032,1.483.007,2.968.008,4.452v.537h2.023a1.006,1.006,0,0,0,.025-.138q0-1.791,0-3.582a2.5,2.5,0,0,1,2.822-2.793c1.795,0,3.594.08,5.383-.02,2.3-.129,3.457,1.09,3.3,3.277-.079,1.08-.014,2.17-.014,3.259h2.052c0-1.654-.017-3.273,0-4.892a8.056,8.056,0,0,1,2.8-6.135c.122-.109.245-.217.426-.377M23.738,45.865H44.244c.171,0,.342.007.512,0a1.224,1.224,0,0,0-.009-2.448c-.136-.009-.273,0-.41,0H3.274a4.917,4.917,0,0,0-.512.01,1.223,1.223,0,0,0,.009,2.437c.186.019.376.009.563.009h20.4m-9.377-4.12c0-1.643.008-3.258,0-4.873A6.573,6.573,0,0,0,9.2,30.455a4.256,4.256,0,0,0-5.53,4.378c.1,1.921.02,3.851.02,5.777v1.135Zm29.531.007c0-2.592.061-5.131-.019-7.666a4.033,4.033,0,0,0-3.988-3.78A6.567,6.567,0,0,0,33.24,36.7c-.022,1.585-.005,3.17,0,4.755a2.511,2.511,0,0,0,.036.3ZM4.926,47.522c0,.841-.014,1.638.005,2.435a.776.776,0,0,0,.809.813c1.638.016,3.275.012,4.913,0a.738.738,0,0,0,.81-.7c.046-.843.013-1.689.013-2.553Zm37.743.014H36.109c0,.832-.015,1.63.005,2.428a.776.776,0,0,0,.816.806q2.456.022,4.913,0a.778.778,0,0,0,.819-.8c.021-.8.006-1.6.006-2.43M5.365,28.665h.461c1.409,0,1.409,0,1.553-1.4a1.66,1.66,0,0,0-1.643-1.871q-.819-.02-1.64,0a1.634,1.634,0,0,0-.012,3.269c.426.014.854,0,1.281,0m22.512,11.5H19.735v1.577h8.141Zm.022-1.69c0-.3.014-.556,0-.808a.789.789,0,0,0-.82-.806q-3.276-.018-6.552,0a.787.787,0,0,0-.823.8c-.018.265,0,.531,0,.812Z"/>
    <path id="Path_4264" data-name="Path 4264" d="M237.937,44.438c-1.452,0-2.9,0-4.356,0a2.46,2.46,0,0,1-2.6-2.6c-.005-2.336.007-4.671,0-7.007a2.572,2.572,0,0,1,1.393-2.434.645.645,0,0,0,.241-.472c.05-1.19-.034-2.4.125-3.57a5.3,5.3,0,0,1,10.437-.018,27.725,27.725,0,0,1,.108,3.519.608.608,0,0,0,.368.626,2.318,2.318,0,0,1,1.276,2.126q.023,3.682,0,7.365a2.446,2.446,0,0,1-2.477,2.466h-4.51m.015-10.647c-1.436,0-2.872,0-4.308,0-.736,0-1.023.288-1.024,1.023q0,3.48,0,6.961c0,.734.289,1.022,1.025,1.023q4.308,0,8.615,0c.734,0,1.024-.29,1.025-1.024q.005-3.48,0-6.961c0-.733-.29-1.02-1.026-1.022-1.436,0-2.872,0-4.308,0m3.69-1.661c0-1.03.021-2,0-2.972a3.687,3.687,0,0,0-3.239-3.533,3.548,3.548,0,0,0-3.944,2.614,26.354,26.354,0,0,0-.262,3.891Z" transform="translate(-199.385 -20.686)" fill="#fc6011"/>
    <path id="Path_4265" data-name="Path 4265" d="M48.566,248.826a3.282,3.282,0,1,1-3.27-3.3,3.287,3.287,0,0,1,3.27,3.3m-1.642-.039a1.639,1.639,0,1,0-1.613,1.649,1.645,1.645,0,0,0,1.613-1.649" transform="translate(-36.258 -211.945)"/>
    <path id="Path_4266" data-name="Path 4266" d="M261.284,245.526a3.275,3.275,0,1,1-3.274,3.3,3.282,3.282,0,0,1,3.274-3.3m-.012,1.639a1.635,1.635,0,1,0,1.658,1.6,1.644,1.644,0,0,0-1.658-1.6" transform="translate(-222.722 -211.946)"/>
    <path id="Path_4267" data-name="Path 4267" d="M268.849,107.414a2.312,2.312,0,0,1-1.3,1.992.528.528,0,0,0-.339.589,3.234,3.234,0,0,1-.006.612.8.8,0,0,1-.825.746c-.451-.025-.82-.294-.776-.72a1.586,1.586,0,0,0-.836-1.577,2.3,2.3,0,0,1-.537-2.958,2.441,2.441,0,0,1,2.732-1.216,2.492,2.492,0,0,1,1.891,2.532m-1.644-.154a.817.817,0,1,0-.8.821.824.824,0,0,0,.8-.821" transform="translate(-227.82 -90.476)" fill="#fc6011"/>
  </g>
</svg>
