<svg id="btry" xmlns="http://www.w3.org/2000/svg" xmlns:xlink="http://www.w3.org/1999/xlink" width="46.746" height="52.448" viewBox="0 0 46.746 52.448">
  <defs>
    <clipPath id="clip-path">
      <rect id="Rectangle_17339" data-name="Rectangle 17339" width="46.746" height="52.448" fill="none"/>
    </clipPath>
  </defs>
  <g id="Group_6860" data-name="Group 6860" clip-path="url(#clip-path)">
    <path id="Path_4287" data-name="Path 4287" d="M76.343,19.714c.885-.219,1.679-.414,2.473-.613,1.86-.467,3.719-.94,5.58-1.4,1.292-.321,2.053.466,1.669,1.732Q81.231,35.368,76.388,51.3c-.253.833-.759,1.224-1.43,1.132-.691-.1-1.061-.629-1.063-1.534,0-.135,0-.27,0-.4V32.745c-.967.236-1.887.456-2.805.685q-2.595.649-5.188,1.309a1.385,1.385,0,0,1-1.5-.278,1.4,1.4,0,0,1-.206-1.51Q69.02,17.1,73.831,1.247a3.387,3.387,0,0,1,.218-.593,1.237,1.237,0,0,1,1.312-.63A1.212,1.212,0,0,1,76.327,1.1c.022.229.016.461.016.692q0,8.575,0,17.15Zm6.8.856c-.3.069-.5.113-.695.163-2.251.561-4.5,1.128-6.754,1.681-1.179.289-1.8-.214-1.8-1.434q0-5.252,0-10.5v-.6l-.105-.015L67.1,31.872c.186-.039.294-.058.4-.085l6.915-1.732c1.331-.333,1.926.131,1.927,1.506q0,5.223,0,10.447v.531l.127.01L83.147,20.57" transform="translate(-54.211 0)" fill="#fc6011"/>
    <path id="Path_4288" data-name="Path 4288" d="M177.091,89.768c1.215,0,2.345,0,3.475,0,.99,0,1.447.45,1.45,1.446q.012,4.705,0,9.41c0,.989-.461,1.434-1.46,1.443-1.129.011-2.259,0-3.465,0v.661c0,1.77,0,3.541,0,5.311,0,.937-.441,1.411-1.362,1.415q-4.781.019-9.563,0a1.235,1.235,0,1,1,.026-2.453q3.889-.008,7.777,0h.675c0-1.023,0-1.98,0-2.938,0-.981,0-1.963,0-2.944.005-1.081.429-1.508,1.5-1.51,1.109,0,2.219,0,3.364,0V92.219h-1.232c-.749,0-1.5.007-2.247,0a1.232,1.232,0,0,1-1.38-1.393c-.01-1.77,0-3.541,0-5.311v-.686h-.734q-6.279,0-12.559,0c-.9,0-1.439-.452-1.454-1.2A1.18,1.18,0,0,1,161,82.385c.153-.014.307-.01.461-.01q7.028,0,14.057,0c1.184,0,1.572.4,1.572,1.606,0,1.9,0,3.8,0,5.786" transform="translate(-135.276 -69.692)"/>
    <path id="Path_4289" data-name="Path 4289" d="M2.5,84.818V107h.668q6.311,0,12.621,0c.921,0,1.513.568,1.427,1.346a1.2,1.2,0,0,1-1.087,1.09,5.63,5.63,0,0,1-.633.022q-6.887,0-13.774,0c-1.343,0-1.718-.375-1.718-1.71q0-11.84,0-23.679c0-1.322.37-1.7,1.662-1.7,3.093,0,6.186-.005,9.279,0a1.217,1.217,0,0,1,1.213,1.787,1.327,1.327,0,0,1-1.309.664c-2.555-.009-5.11,0-7.665,0H2.5" transform="translate(0 -69.684)"/>
  </g>
</svg>
