<svg xmlns="http://www.w3.org/2000/svg" xmlns:xlink="http://www.w3.org/1999/xlink" width="69" height="52" viewBox="0 0 69 52">
  <defs>
    <clipPath id="clip-path">
      <rect id="Rectangle_17338" data-name="Rectangle 17338" width="69" height="52" transform="translate(0 0.088)" fill="none"/>
    </clipPath>
  </defs>
  <g id="tow" transform="translate(0 -0.088)">
    <g id="Group_6859" data-name="Group 6859" transform="translate(0 0.001)" clip-path="url(#clip-path)">
      <path id="Path_4281" data-name="Path 4281" d="M68.857,43.584c-.67,1.915-1.331,3.834-2.014,5.745-.344.964-.8,1.166-1.76.836-.762-.261-1.529-.509-2.277-.808a.739.739,0,0,0-1.007.273A5.19,5.19,0,0,1,56.391,51.5,5.069,5.069,0,0,1,52.4,47.74c-.152-.528-.113-1.109-.214-1.655-.04-.214-.182-.521-.351-.581-2.5-.911-5.019-1.776-7.523-2.681-.465-.168-.588.141-.793.39a5.408,5.408,0,0,1-9.039-1.006,17.04,17.04,0,0,1-.783-3.1c-.64-.23-1.558-.559-2.477-.888-.812-.291-.891-.367-1.12-1.046a5.686,5.686,0,0,1-1.04.481c-.7.169-1.087.495-1.082,1.073a1.037,1.037,0,0,0,.851,1.064c.535.138,1-.181,1.271-.829.024-.062.047-.123.076-.2h2a3.122,3.122,0,0,1-3.654,3.165,3.268,3.268,0,0,1-2.67-2.677,3.207,3.207,0,0,1,1.653-3.328c.3-.165.472-.3.471-.694q-.022-12.709-.011-25.416c0-.065-.016-.129-.046-.362L15.86,30.134h5.955c.247,0,.493-.01.739,0a1.052,1.052,0,0,1,1.107,1.1c.011,3,.08,6.009-.03,9.007a5.277,5.277,0,0,1-5.186,4.943c-1.139.029-2.279,0-3.454,0a7.616,7.616,0,0,1-2.562,4.634A7.512,7.512,0,0,1,.222,45.876C.165,45.647.075,45.424,0,45.2V43.046c.08-.248.175-.492.24-.745a7.513,7.513,0,0,1,12.288-3.8,7.632,7.632,0,0,1,2.459,4.525c1.239,0,2.45.062,3.651-.017a2.811,2.811,0,0,0,2.566-2.14H17.265V38.721h4.21V32.285H0V30.134a1.193,1.193,0,0,0,1.106-.462Q13.38,17.368,25.677,5.087a.894.894,0,0,0,.283-1.037A3.169,3.169,0,0,1,27.937.2a3.219,3.219,0,0,1,2.688,5.827c-.31.172-.514.307-.514.733q.024,14.757.014,29.515a.366.366,0,0,0,.113.277q.639-1.709,1.281-3.417a9.882,9.882,0,0,1,6.929-6.547c.729-.2,1.508-.191,2.252-.334a1.207,1.207,0,0,0,.726-.427c.838-1.271,1.635-2.568,2.436-3.863a9.835,9.835,0,0,1,11.376-4.275q2.494.783,4.936,1.734A9.492,9.492,0,0,1,65.99,30.134c-.251,1.41-.462,2.827-.667,4.246a.728.728,0,0,0,.152.577,9.446,9.446,0,0,1,3.308,5.757.815.815,0,0,0,.075.181Zm-3.771,4.3c.374-1,.73-1.937,1.076-2.878a7.107,7.107,0,0,0-2.572-8.736,1.254,1.254,0,0,1-.555-1.328c.278-1.654.506-3.318.8-4.972a7.379,7.379,0,0,0-5.108-8.808c-1.347-.483-2.693-.973-4.057-1.4A7.649,7.649,0,0,0,45.767,23c-.973,1.529-1.948,3.06-2.881,4.613a1.578,1.578,0,0,1-1.714.849,6.223,6.223,0,0,0-3.784.851c1.323,1.314,1.674,2.644.953,3.925-1.188,2.1-2.994,2.135-5.028,1.271-.247.66-.471,1.258-.717,1.915.577.207,1.11.367,1.618.587.374.164.572.083.831-.241A5.43,5.43,0,0,1,41.2,35a5.3,5.3,0,0,1,3.509,5.266.741.741,0,0,0,.383.541c.634.277,1.3.489,1.951.719q2.967,1.046,5.93,2.084c1.67-2.149,3.781-3.044,6.359-2.175,2.651.894,3.783,2.914,3.645,5.7.679.242,1.35.482,2.106.75M3.843,30.134c2.964,0,5.9-.013,8.831.011a1.031,1.031,0,0,0,1.052-.588Q19.992,18.751,26.295,7.966c.118-.2.221-.415.323-.61L3.843,30.134m-1.691,14a5.379,5.379,0,1,0,5.385-5.388A5.391,5.391,0,0,0,2.152,44.13m58.679,2.238a3.139,3.139,0,0,0-3.285-3.08,3.183,3.183,0,0,0-3.2,3.12A3.219,3.219,0,0,0,57.652,49.5a3.172,3.172,0,0,0,3.179-3.133m-21.5-9.527a3.106,3.106,0,1,0,3.222,3.093,3.14,3.14,0,0,0-3.222-3.093M29.041,2.162a1.071,1.071,0,1,0,1.079,1.044,1.079,1.079,0,0,0-1.079-1.044m5.09,30.326a3.548,3.548,0,0,0,.887.311,1.739,1.739,0,0,0,1.064-.152,1.116,1.116,0,0,0,.367-.955,1.518,1.518,0,0,0-.789-.78c-.139-.067-.515.205-.694.4a12.28,12.28,0,0,0-.835,1.172" transform="translate(0 -0.001)"/>
      <path id="Path_4282" data-name="Path 4282" d="M48.308,22c-.242,1.684-.5,3.661-.826,5.626-.116.706-.8.968-1.608.689-1.648-.572-3.291-1.161-4.936-1.742q-4.336-1.532-8.67-3.064c-1.186-.42-1.386-1.021-.7-2.09.849-1.317,1.7-2.637,2.555-3.949A5.4,5.4,0,0,1,40.4,15.2c1.532.492,3.051,1.033,4.556,1.608A5.322,5.322,0,0,1,48.308,22M33.882,21.8l11.69,4.113c.186-1.267.343-2.42.526-3.568a3.113,3.113,0,0,0-1.983-3.556c-1.442-.551-2.9-1.062-4.365-1.544A3.158,3.158,0,0,0,36.187,18.3c-.8,1.1-1.5,2.271-2.305,3.5" transform="translate(13.546 6.484)" fill="#f95e0f"/>
      <path id="Path_4283" data-name="Path 4283" d="M36.45,22.984l2.011.756c-.869,2.315-1.717,4.566-2.585,6.877l-2.013-.753c.871-2.315,1.717-4.569,2.586-6.88" transform="translate(14.715 9.986)" fill="#f95e0f"/>
      <path id="Path_4284" data-name="Path 4284" d="M34.352,24.709l-2.023-.716c.238-.674.463-1.315.712-2.018l2.024.713c-.242.686-.463,1.311-.713,2.021" transform="translate(14.048 9.548)" fill="#f95e0f"/>
      <path id="Path_4285" data-name="Path 4285" d="M42.143,27.458l-2.023-.713c.241-.683.468-1.323.713-2.018l2.023.712c-.245.693-.471,1.333-.713,2.02" transform="translate(17.433 10.744)" fill="#f95e0f"/>
      <path id="Path_4286" data-name="Path 4286" d="M9.451,31.718a3.224,3.224,0,1,1-3.2-3.21,3.237,3.237,0,0,1,3.2,3.21M6.195,32.8a1.073,1.073,0,1,0-1.04-1.086A1.089,1.089,0,0,0,6.195,32.8" transform="translate(1.305 12.387)"/>
    </g>
  </g>
</svg>
