<svg id="tyre" xmlns="http://www.w3.org/2000/svg" xmlns:xlink="http://www.w3.org/1999/xlink" width="60" height="52.087" viewBox="0 0 60 52.087">
  <defs>
    <clipPath id="clip-path">
      <rect id="Rectangle_17322" data-name="Rectangle 17322" width="60" height="52.087"/>
    </clipPath>
  </defs>
  <g id="Group_6848" data-name="Group 6848" clip-path="url(#clip-path)">
    <path id="Path_4257" data-name="Path 4257" d="M60,47.753c-.047.167-.1.333-.14.5a5.021,5.021,0,0,1-4.695,3.825c-.156.007-.312.007-.468.007q-24.681,0-49.361,0a5.042,5.042,0,0,1-5.01-3.325,4.983,4.983,0,0,1,1.912-5.838c.159-.107.32-.211.451-.3-.5-1.407-1.083-2.757-1.464-4.161C-1.645,27.91.547,18.438,7.606,10.17A28.378,28.378,0,0,1,26.055.259,29.939,29.939,0,0,1,59.163,23.076c.356,1.495.492,3.042.732,4.564.027.172.069.341.1.512v3.756a2.417,2.417,0,0,0-.094.394A29.935,29.935,0,0,1,57.4,42.287a.764.764,0,0,0-.057.192,11.711,11.711,0,0,1,1.664,1.65A13.449,13.449,0,0,1,60,46.345ZM43.1,5.316C40.312,3.53,33.186,1.657,31.013,2.138a15.531,15.531,0,0,1-.018,1.743,1.382,1.382,0,0,1-.42.9,1.058,1.058,0,0,1-.954.1,1.408,1.408,0,0,1-.581-.909,13.593,13.593,0,0,1-.026-1.928A27.651,27.651,0,0,0,16.906,5.28c.319.555.615,1.057.9,1.567a1.01,1.01,0,1,1-1.73,1c-.3-.5-.587-1.006-.9-1.552a28.146,28.146,0,0,0-8.86,8.873c.551.322,1.06.609,1.558.913a1.011,1.011,0,1,1-1.014,1.725c-.507-.282-1.007-.577-1.558-.894A27.8,27.8,0,0,0,2.054,29.052c.626,0,1.188-.011,1.748.005a1.7,1.7,0,0,1,.678.123A.9.9,0,0,1,5,30.2a.952.952,0,0,1-.977.844c-.637.029-1.276.007-1.951.007,0,.175,0,.268,0,.361a28.406,28.406,0,0,0,2.355,9.981c.211.485.431.782,1.009.717a2.219,2.219,0,0,1,.8.118.989.989,0,0,1-.377,1.941c-.233-.024-.464-.071-.7-.081a2.968,2.968,0,0,0-2.916,1.854,3.016,3.016,0,0,0,3,4.14q7.525.015,15.051,0c.1,0,.2-.014.443-.031-6.356-3.214-10.49-8.11-12.1-14.927A21.223,21.223,0,0,1,12.7,16.485,21.88,21.88,0,0,1,44.9,13.848,20.961,20.961,0,0,1,51.969,30.01c-.121,9.146-4.554,15.747-12.655,20.075H50.085c1.64,0,3.28.022,4.919-.008a3,3,0,0,0,2.981-2.691,2.968,2.968,0,0,0-2.256-3.2,6.683,6.683,0,0,0-1.509-.036.963.963,0,0,1-1.047-.816.94.94,0,0,1,.713-1.115,2.993,2.993,0,0,1,.922-.122.638.638,0,0,0,.688-.47,27.823,27.823,0,0,0,2.14-7.162c.171-1.108.248-2.23.374-3.407-.682,0-1.245.008-1.808,0-.739-.014-1.195-.4-1.2-1.005s.447-.984,1.193-1c.578-.008,1.157,0,1.776,0a27.9,27.9,0,0,0-3.241-12.135c-.317.18-.554.313-.79.449-.254.146-.5.3-.76.439a1.021,1.021,0,0,1-1.521-.287c-.3-.534-.1-1.073.543-1.457.495-.295.992-.585,1.514-.892A28.275,28.275,0,0,0,44.856,6.3c-.293.507-.562.977-.835,1.445-.419.717-.974.937-1.527.607-.531-.317-.611-.893-.218-1.587.27-.475.543-.949.827-1.445m6.907,24.705a20,20,0,1,0-20,20.064,20.042,20.042,0,0,0,20-20.064" transform="translate(0 0)"/>
    <path id="Path_4258" data-name="Path 4258" d="M94.739,76.96A18.019,18.019,0,0,1,94.727,113a18.019,18.019,0,0,1,.012-36.038M78.971,91.984c.257.079.367.117.479.146,2.244.585,4.49,1.159,6.731,1.756a2.2,2.2,0,0,1,1.679,1.949,11.84,11.84,0,0,0,.807,2.547,2.3,2.3,0,0,1-.32,2.906q-1.789,2.171-3.584,4.338c-.282.342-.561.688-.919,1.127l3.18,2.305c.187-.282.307-.458.421-.638q1.744-2.744,3.486-5.49a2.239,2.239,0,0,1,2.23-1.084,26.351,26.351,0,0,0,3.2,0,2.213,2.213,0,0,1,2.191,1.046q.708,1.112,1.414,2.225l2.517,3.959,3.182-2.337c-1.579-1.912-3.06-3.7-4.538-5.5a2.278,2.278,0,0,1-.309-2.808,13.6,13.6,0,0,0,.84-2.658,2.221,2.221,0,0,1,1.674-1.888c1.224-.324,2.452-.633,3.678-.953,1.143-.3,2.285-.6,3.539-.932l-1.227-3.774c-2.36.937-4.589,1.818-6.814,2.709a2.3,2.3,0,0,1-2.584-.49,18.973,18.973,0,0,0-2.433-1.786,2.2,2.2,0,0,1-1.206-2.05c.037-.957.113-1.913.172-2.869.1-1.538.192-3.076.294-4.705H92.763c.021.376.034.666.053.955q.2,3.219.41,6.439a2.309,2.309,0,0,1-1.358,2.314,12.322,12.322,0,0,0-2.2,1.612,2.246,2.246,0,0,1-2.661.575c-.89-.347-1.774-.707-2.662-1.058-1.352-.536-2.706-1.069-4.164-1.645l-1.209,3.756m29.331-5.51a16.172,16.172,0,0,0-9.573-7.017c-.154,2.4-.309,4.76-.441,7.118-.007.119.163.277.286.369q1.33.991,2.679,1.955c.138.1.368.205.5.156,2.161-.835,4.313-1.694,6.552-2.582M90.775,79.456a16.119,16.119,0,0,0-9.528,6.954c.064.058.089.095.123.108,2.116.846,4.231,1.7,6.356,2.521a.734.734,0,0,0,.547-.161c.887-.627,1.769-1.264,2.629-1.928a.862.862,0,0,0,.306-.582c.011-.545-.056-1.092-.091-1.638C91,83,90.892,81.262,90.775,79.456M82.524,105.2c1.471-1.78,2.918-3.523,4.344-5.283a.727.727,0,0,0,.013-.561q-.491-1.585-1.031-3.154a.712.712,0,0,0-.369-.414c-.669-.21-1.352-.372-2.031-.548q-2.285-.59-4.575-1.178A15.17,15.17,0,0,0,82.524,105.2m28.19-11.159c-2.314.6-4.54,1.164-6.758,1.761-.137.037-.249.292-.309.468-.337.993-.62,2.006-1,2.983a.681.681,0,0,0,.092.821c1.319,1.571,2.617,3.158,3.925,4.739.105.127.228.241.376.4a16.041,16.041,0,0,0,3.669-11.168m-10.106,15.825c-1.258-1.979-2.452-3.876-3.678-5.753-.1-.148-.414-.206-.631-.211-1.027-.021-2.055.021-3.081-.023a.7.7,0,0,0-.753.358c-.607,1-1.248,1.98-1.874,2.969-.549.867-1.1,1.734-1.684,2.66a15.871,15.871,0,0,0,11.7,0" transform="translate(-64.742 -64.916)" fill="#fc6011"/>
    <path id="Path_4259" data-name="Path 4259" d="M164.733,160.024a5.008,5.008,0,1,1-4.922,5.069,5.01,5.01,0,0,1,4.922-5.069m.081,2.008a3,3,0,0,0-3,2.964,3,3,0,1,0,6,0,2.994,2.994,0,0,0-3-2.968" transform="translate(-134.8 -134.98)" fill="#fc6011"/>
  </g>
</svg>
