<svg id="Winching" xmlns="http://www.w3.org/2000/svg" xmlns:xlink="http://www.w3.org/1999/xlink" width="24.553" height="52.591" viewBox="0 0 24.553 52.591">
  <defs>
    <clipPath id="clip-path">
      <rect id="Rectangle_17340" data-name="Rectangle 17340" width="24.553" height="52.591" fill="none"/>
    </clipPath>
  </defs>
  <g id="Group_6861" data-name="Group 6861" clip-path="url(#clip-path)">
    <path id="Path_4290" data-name="Path 4290" d="M18.8,0a1.991,1.991,0,0,1,1.366,2.2c-.054,1.127-.013,2.258-.011,3.388,0,.166.016.333.027.558.814,0,1.6,0,2.378,0a1.774,1.774,0,0,1,1.988,2c0,3.252.016,6.5-.017,9.755a2.952,2.952,0,0,1-.392,1.4q-2.252,3.853-4.588,7.655a9.11,9.11,0,0,1-.906.938.953.953,0,0,0-.231.588,3.626,3.626,0,0,1-1.373,3.214,9.806,9.806,0,0,1-.837.532,9.724,9.724,0,0,0,2.152,2.6A10.082,10.082,0,0,1,13.84,52.392c-.333.065-.664.133-1,.2H10.789c-.869-.232-1.764-.393-2.6-.708A10.011,10.011,0,0,1,1.758,42.7a9.548,9.548,0,0,1,.035-1.486,3.067,3.067,0,0,1,6.1.342A12.5,12.5,0,0,0,8,43.343a3.882,3.882,0,0,0,3.3,3.081,3.949,3.949,0,0,0,4.078-2.155,4,4,0,0,0-.766-4.554c-.77-.776-1.581-1.518-2.292-2.346a14.241,14.241,0,0,1-2.583-4.516.623.623,0,0,0-.563-.479,3.44,3.44,0,0,1-3.03-3.448,5.03,5.03,0,0,1,0-.513.562.562,0,0,0-.329-.6,2.4,2.4,0,0,1-.779-.783Q2.668,23.128.348,19.2a2.53,2.53,0,0,1-.33-1.208C-.008,14.67,0,11.35,0,8.031A1.739,1.739,0,0,1,1.891,6.146c.8-.007,1.606,0,2.474,0,.011-.205.028-.385.028-.565,0-1.129.041-2.261-.01-3.387A1.979,1.979,0,0,1,5.755,0h3.39a1.973,1.973,0,0,1,1.38,2.181c-.047,1.125-.012,2.253-.009,3.38,0,.182.017.364.027.562H14c.009-.2.025-.385.025-.568,0-1.127.036-2.255-.009-3.38A1.967,1.967,0,0,1,15.411,0ZM1.773,7.911c-.009.135-.019.217-.019.3,0,3.218-.005,6.436.009,9.653a1.388,1.388,0,0,0,.217.66c1.469,2.469,2.955,4.927,4.42,7.4a.687.687,0,0,0,.691.379q5.186-.018,10.372,0a.686.686,0,0,0,.688-.384c1.465-2.471,2.954-4.928,4.417-7.4a1.682,1.682,0,0,0,.22-.813c.015-3.081.01-6.162.01-9.243,0-.18,0-.36,0-.552Zm9.639,24.53c.324.662.573,1.221.864,1.758a16.3,16.3,0,0,0,3.45,4.17,5.6,5.6,0,0,1,1.255,6.585A5.679,5.679,0,0,1,6.257,43.563a16.025,16.025,0,0,1-.113-1.89,1.319,1.319,0,1,0-2.638.021c-.011.29,0,.582,0,.873a8.292,8.292,0,0,0,9.362,8.185,7.859,7.859,0,0,0,6.882-5.731,7.942,7.942,0,0,0-2.317-8.657,14.464,14.464,0,0,1-2.958-3.649.54.54,0,0,0-.372-.263c-.853-.023-1.708-.012-2.689-.012m5.217-4.356H7.9c0,.21,0,.38,0,.55a1.8,1.8,0,0,0,2.037,2.051c1.589,0,3.178,0,4.767,0a1.85,1.85,0,0,0,1.669-.817,2.784,2.784,0,0,0,.256-1.786M6.179,6.117H8.718V1.766H6.179Zm12.182.028V1.782H15.823V6.144h2.539Z" transform="translate(0)"/>
    <path id="Path_4291" data-name="Path 4291" d="M85.317,105.863a3.509,3.509,0,1,1,3.484,3.526,3.532,3.532,0,0,1-3.484-3.526m5.26.006a1.752,1.752,0,0,0-3.5-.007,1.752,1.752,0,1,0,3.5.007" transform="translate(-76.554 -91.854)" fill="#ff4e00"/>
    <path id="Path_4292" data-name="Path 4292" d="M34.033,98.295c0-1.129-.008-2.259,0-3.388a.871.871,0,0,1,.769-.935.819.819,0,0,1,.923.572,1.843,1.843,0,0,1,.053.608c0,2-.006,4,.012,6.006a1.771,1.771,0,0,0,.215.817c.985,1.76,1.994,3.507,2.994,5.258a2.765,2.765,0,0,1,.233.455.861.861,0,0,1-.4,1.056.842.842,0,0,1-1.1-.237,2.677,2.677,0,0,1-.216-.348c-1.061-1.855-2.134-3.7-3.168-5.572a2.686,2.686,0,0,1-.3-1.159c-.04-1.042-.014-2.087-.013-3.131" transform="translate(-30.529 -84.314)" fill="#ff4e00"/>
  </g>
</svg>
